<?xml version="1.0" encoding="UTF-8"?>
<svg xmlns="http://www.w3.org/2000/svg" xmlns:xlink="http://www.w3.org/1999/xlink"  width="24" height="24" viewBox="0 0 42 24" version="1.1">
<g id="surface1">
<rect x="0" y="0" width="42" height="24" style="fill:rgb(85.490196%,0%,0%);fill-opacity:1;stroke:none;"/>
<path style=" stroke:none;fill-rule:nonzero;fill:rgb(100%,100%,100%);fill-opacity:1;" d="M 0 0 L 42 0 L 42 16 L 0 16 Z M 0 0 "/>
<path style=" stroke:none;fill-rule:nonzero;fill:rgb(13.72549%,62.352941%,25.098039%);fill-opacity:1;" d="M 0 0 L 42 0 L 42 8 L 0 8 Z M 0 0 "/>
<path style="fill:none;stroke-width:2;stroke-linecap:butt;stroke-linejoin:miter;stroke:rgb(100%,100%,100%);stroke-opacity:1;stroke-miterlimit:4;" d="M -0.015067 0.983817 L 26.017299 0.983817 M 0.989397 9.982143 L 0.989397 5.001674 L 8.983259 5.001674 L 8.983259 9.019531 L 17.018973 9.019531 L 17.018973 5.001674 L 11.996652 5.001674 M 4.00279 9.019531 L 6.011719 9.019531 M 26.017299 9.019531 L 20.994978 9.019531 L 20.994978 5.001674 L 28.988839 5.001674 M 28.988839 -0.0206473 L 28.988839 9.019531 L 36.982701 9.019531 L 36.982701 -0.0206473 M 33.006696 -0.0206473 L 33.006696 9.019531 " transform="matrix(0.0933333,0,0,0.0933333,0.56,6.693333)"/>
<path style="fill:none;stroke-width:2;stroke-linecap:butt;stroke-linejoin:miter;stroke:rgb(100%,100%,100%);stroke-opacity:1;stroke-miterlimit:4;" d="M -0.00753348 7 L 8.990792 7 M 9.995257 7 L 18.993583 7 " transform="matrix(0.186667,0,0,0.186667,0.56,6.693333)"/>
<path style="fill:none;stroke-width:2;stroke-linecap:butt;stroke-linejoin:miter;stroke:rgb(100%,100%,100%);stroke-opacity:1;stroke-miterlimit:4;" d="M -0.00753348 7 L 8.990792 7 M 9.995257 7 L 18.993583 7 " transform="matrix(0.186667,0,0,0.186667,0.56,14.693333)"/>
<path style="fill:none;stroke-width:2;stroke-linecap:butt;stroke-linejoin:miter;stroke:rgb(100%,100%,100%);stroke-opacity:1;stroke-miterlimit:4;" d="M -0.015067 0.980469 L 26.017299 0.980469 M 0.989397 10.020647 L 0.989397 4.998326 L 8.983259 4.998326 L 8.983259 9.016183 L 17.018973 9.016183 L 17.018973 4.998326 L 11.996652 4.998326 M 4.00279 9.016183 L 6.011719 9.016183 M 26.017299 9.016183 L 20.994978 9.016183 L 20.994978 4.998326 L 28.988839 4.998326 M 28.988839 0.0178571 L 28.988839 9.016183 L 36.982701 9.016183 L 36.982701 0.0178571 M 33.006696 0.0178571 L 33.006696 9.016183 " transform="matrix(0.0933333,0,0,0.0933333,0.56,16.373333)"/>
<path style="fill:none;stroke-width:2;stroke-linecap:butt;stroke-linejoin:miter;stroke:rgb(100%,100%,100%);stroke-opacity:1;stroke-miterlimit:4;" d="M -0.00390625 0.983817 L 25.986607 0.983817 M 1.000558 9.982143 L 1.000558 5.001674 L 8.99442 5.001674 L 8.99442 9.019531 L 16.988281 9.019531 L 16.988281 5.001674 L 12.007813 5.001674 M 4.013951 9.019531 L 5.981027 9.019531 M 25.986607 9.019531 L 21.006138 9.019531 L 21.006138 5.001674 L 29 5.001674 M 29 -0.0206473 L 29 9.019531 L 36.993862 9.019531 L 36.993862 -0.0206473 M 33.017857 -0.0206473 L 33.017857 9.019531 " transform="matrix(0.0933333,0,0,0.0933333,4.293333,6.693333)"/>
<path style="fill:none;stroke-width:2;stroke-linecap:butt;stroke-linejoin:miter;stroke:rgb(100%,100%,100%);stroke-opacity:1;stroke-miterlimit:4;" d="M -0.00195312 7 L 8.996373 7 M 10.000837 7 L 18.999163 7 " transform="matrix(0.186667,0,0,0.186667,4.293333,6.693333)"/>
<path style="fill:none;stroke-width:2;stroke-linecap:butt;stroke-linejoin:miter;stroke:rgb(100%,100%,100%);stroke-opacity:1;stroke-miterlimit:4;" d="M -0.00195312 7 L 8.996373 7 M 10.000837 7 L 18.999163 7 " transform="matrix(0.186667,0,0,0.186667,4.293333,14.693333)"/>
<path style="fill:none;stroke-width:2;stroke-linecap:butt;stroke-linejoin:miter;stroke:rgb(100%,100%,100%);stroke-opacity:1;stroke-miterlimit:4;" d="M -0.00390625 0.980469 L 25.986607 0.980469 M 1.000558 10.020647 L 1.000558 4.998326 L 8.99442 4.998326 L 8.99442 9.016183 L 16.988281 9.016183 L 16.988281 4.998326 L 12.007813 4.998326 M 4.013951 9.016183 L 5.981027 9.016183 M 25.986607 9.016183 L 21.006138 9.016183 L 21.006138 4.998326 L 29 4.998326 M 29 0.0178571 L 29 9.016183 L 36.993862 9.016183 L 36.993862 0.0178571 M 33.017857 0.0178571 L 33.017857 9.016183 " transform="matrix(0.0933333,0,0,0.0933333,4.293333,16.373333)"/>
<path style="fill:none;stroke-width:2;stroke-linecap:butt;stroke-linejoin:miter;stroke:rgb(100%,100%,100%);stroke-opacity:1;stroke-miterlimit:4;" d="M 0.00725446 0.983817 L 25.997768 0.983817 M 1.011719 9.982143 L 1.011719 5.001674 L 9.00558 5.001674 L 9.00558 9.019531 L 16.999442 9.019531 L 16.999442 5.001674 L 12.018973 5.001674 M 3.983259 9.019531 L 5.992188 9.019531 M 25.997768 9.019531 L 21.017299 9.019531 L 21.017299 5.001674 L 29.011161 5.001674 M 29.011161 -0.0206473 L 29.011161 9.019531 L 37.005022 9.019531 L 37.005022 -0.0206473 M 32.987165 -0.0206473 L 32.987165 9.019531 " transform="matrix(0.0933333,0,0,0.0933333,8.026667,6.693333)"/>
<path style="fill:none;stroke-width:2;stroke-linecap:butt;stroke-linejoin:miter;stroke:rgb(100%,100%,100%);stroke-opacity:1;stroke-miterlimit:4;" d="M 0.00362723 7 L 9.001953 7 M 10.006417 7 L 19.004743 7 " transform="matrix(0.186667,0,0,0.186667,8.026667,6.693333)"/>
<path style="fill:none;stroke-width:2;stroke-linecap:butt;stroke-linejoin:miter;stroke:rgb(100%,100%,100%);stroke-opacity:1;stroke-miterlimit:4;" d="M 0.00362723 7 L 9.001953 7 M 10.006417 7 L 19.004743 7 " transform="matrix(0.186667,0,0,0.186667,8.026667,14.693333)"/>
<path style="fill:none;stroke-width:2;stroke-linecap:butt;stroke-linejoin:miter;stroke:rgb(100%,100%,100%);stroke-opacity:1;stroke-miterlimit:4;" d="M 0.00725446 0.980469 L 25.997768 0.980469 M 1.011719 10.020647 L 1.011719 4.998326 L 9.00558 4.998326 L 9.00558 9.016183 L 16.999442 9.016183 L 16.999442 4.998326 L 12.018973 4.998326 M 3.983259 9.016183 L 5.992188 9.016183 M 25.997768 9.016183 L 21.017299 9.016183 L 21.017299 4.998326 L 29.011161 4.998326 M 29.011161 0.0178571 L 29.011161 9.016183 L 37.005022 9.016183 L 37.005022 0.0178571 M 32.987165 0.0178571 L 32.987165 9.016183 " transform="matrix(0.0933333,0,0,0.0933333,8.026667,16.373333)"/>
<path style="fill:none;stroke-width:2;stroke-linecap:butt;stroke-linejoin:miter;stroke:rgb(100%,100%,100%);stroke-opacity:1;stroke-miterlimit:4;" d="M 0.0184152 0.983817 L 26.008929 0.983817 M 0.981027 9.982143 L 0.981027 5.001674 L 9.016741 5.001674 L 9.016741 9.019531 L 17.010603 9.019531 L 17.010603 5.001674 L 11.988281 5.001674 M 3.99442 9.019531 L 6.003348 9.019531 M 26.008929 9.019531 L 20.986607 9.019531 L 20.986607 5.001674 L 28.980469 5.001674 M 28.980469 -0.0206473 L 28.980469 9.019531 L 37.016183 9.019531 L 37.016183 -0.0206473 M 32.998326 -0.0206473 L 32.998326 9.019531 " transform="matrix(0.0933333,0,0,0.0933333,11.76,6.693333)"/>
<path style="fill:none;stroke-width:2;stroke-linecap:butt;stroke-linejoin:miter;stroke:rgb(100%,100%,100%);stroke-opacity:1;stroke-miterlimit:4;" d="M 0.00920759 7 L 9.007533 7 M 9.991071 7 L 19.010324 7 " transform="matrix(0.186667,0,0,0.186667,11.76,6.693333)"/>
<path style="fill:none;stroke-width:2;stroke-linecap:butt;stroke-linejoin:miter;stroke:rgb(100%,100%,100%);stroke-opacity:1;stroke-miterlimit:4;" d="M 0.00920759 7 L 9.007533 7 M 9.991071 7 L 19.010324 7 " transform="matrix(0.186667,0,0,0.186667,11.76,14.693333)"/>
<path style="fill:none;stroke-width:2;stroke-linecap:butt;stroke-linejoin:miter;stroke:rgb(100%,100%,100%);stroke-opacity:1;stroke-miterlimit:4;" d="M 0.0184152 0.980469 L 26.008929 0.980469 M 0.981027 10.020647 L 0.981027 4.998326 L 9.016741 4.998326 L 9.016741 9.016183 L 17.010603 9.016183 L 17.010603 4.998326 L 11.988281 4.998326 M 3.99442 9.016183 L 6.003348 9.016183 M 26.008929 9.016183 L 20.986607 9.016183 L 20.986607 4.998326 L 28.980469 4.998326 M 28.980469 0.0178571 L 28.980469 9.016183 L 37.016183 9.016183 L 37.016183 0.0178571 M 32.998326 0.0178571 L 32.998326 9.016183 " transform="matrix(0.0933333,0,0,0.0933333,11.76,16.373333)"/>
<path style="fill:none;stroke-width:2;stroke-linecap:butt;stroke-linejoin:miter;stroke:rgb(100%,100%,100%);stroke-opacity:1;stroke-miterlimit:4;" d="M -0.0122768 0.983817 L 26.020089 0.983817 M 0.992188 9.982143 L 0.992188 5.001674 L 8.986049 5.001674 L 8.986049 9.019531 L 16.979911 9.019531 L 16.979911 5.001674 L 11.999442 5.001674 M 4.00558 9.019531 L 6.014509 9.019531 M 26.020089 9.019531 L 20.997768 9.019531 L 20.997768 5.001674 L 28.991629 5.001674 M 28.991629 -0.0206473 L 28.991629 9.019531 L 36.985491 9.019531 L 36.985491 -0.0206473 M 33.009487 -0.0206473 L 33.009487 9.019531 " transform="matrix(0.0933333,0,0,0.0933333,15.493333,6.693333)"/>
<path style="fill:none;stroke-width:2;stroke-linecap:butt;stroke-linejoin:miter;stroke:rgb(100%,100%,100%);stroke-opacity:1;stroke-miterlimit:4;" d="M -0.00613839 7 L 8.992188 7 M 9.996652 7 L 18.994978 7 " transform="matrix(0.186667,0,0,0.186667,15.493333,6.693333)"/>
<path style="fill:none;stroke-width:2;stroke-linecap:butt;stroke-linejoin:miter;stroke:rgb(100%,100%,100%);stroke-opacity:1;stroke-miterlimit:4;" d="M -0.00613839 7 L 8.992188 7 M 9.996652 7 L 18.994978 7 " transform="matrix(0.186667,0,0,0.186667,15.493333,14.693333)"/>
<path style="fill:none;stroke-width:2;stroke-linecap:butt;stroke-linejoin:miter;stroke:rgb(100%,100%,100%);stroke-opacity:1;stroke-miterlimit:4;" d="M -0.0122768 0.980469 L 26.020089 0.980469 M 0.992188 10.020647 L 0.992188 4.998326 L 8.986049 4.998326 L 8.986049 9.016183 L 16.979911 9.016183 L 16.979911 4.998326 L 11.999442 4.998326 M 4.00558 9.016183 L 6.014509 9.016183 M 26.020089 9.016183 L 20.997768 9.016183 L 20.997768 4.998326 L 28.991629 4.998326 M 28.991629 0.0178571 L 28.991629 9.016183 L 36.985491 9.016183 L 36.985491 0.0178571 M 33.009487 0.0178571 L 33.009487 9.016183 " transform="matrix(0.0933333,0,0,0.0933333,15.493333,16.373333)"/>
<path style="fill:none;stroke-width:2;stroke-linecap:butt;stroke-linejoin:miter;stroke:rgb(100%,100%,100%);stroke-opacity:1;stroke-miterlimit:4;" d="M -0.00111607 0.983817 L 25.989397 0.983817 M 1.003348 9.982143 L 1.003348 5.001674 L 8.99721 5.001674 L 8.99721 9.019531 L 16.991071 9.019531 L 16.991071 5.001674 L 12.010603 5.001674 M 4.016741 9.019531 L 5.983817 9.019531 M 25.989397 9.019531 L 21.008929 9.019531 L 21.008929 5.001674 L 29.00279 5.001674 M 29.00279 -0.0206473 L 29.00279 9.019531 L 36.996652 9.019531 L 36.996652 -0.0206473 M 33.020647 -0.0206473 L 33.020647 9.019531 " transform="matrix(0.0933333,0,0,0.0933333,19.226667,6.693333)"/>
<path style="fill:none;stroke-width:2;stroke-linecap:butt;stroke-linejoin:miter;stroke:rgb(100%,100%,100%);stroke-opacity:1;stroke-miterlimit:4;" d="M -0.000558036 7 L 8.997768 7 M 10.002232 7 L 19.000558 7 " transform="matrix(0.186667,0,0,0.186667,19.226667,6.693333)"/>
<path style="fill:none;stroke-width:2;stroke-linecap:butt;stroke-linejoin:miter;stroke:rgb(100%,100%,100%);stroke-opacity:1;stroke-miterlimit:4;" d="M -0.000558036 7 L 8.997768 7 M 10.002232 7 L 19.000558 7 " transform="matrix(0.186667,0,0,0.186667,19.226667,14.693333)"/>
<path style="fill:none;stroke-width:2;stroke-linecap:butt;stroke-linejoin:miter;stroke:rgb(100%,100%,100%);stroke-opacity:1;stroke-miterlimit:4;" d="M -0.00111607 0.980469 L 25.989397 0.980469 M 1.003348 10.020647 L 1.003348 4.998326 L 8.99721 4.998326 L 8.99721 9.016183 L 16.991071 9.016183 L 16.991071 4.998326 L 12.010603 4.998326 M 4.016741 9.016183 L 5.983817 9.016183 M 25.989397 9.016183 L 21.008929 9.016183 L 21.008929 4.998326 L 29.00279 4.998326 M 29.00279 0.0178571 L 29.00279 9.016183 L 36.996652 9.016183 L 36.996652 0.0178571 M 33.020647 0.0178571 L 33.020647 9.016183 " transform="matrix(0.0933333,0,0,0.0933333,19.226667,16.373333)"/>
<path style="fill:none;stroke-width:2;stroke-linecap:butt;stroke-linejoin:miter;stroke:rgb(100%,100%,100%);stroke-opacity:1;stroke-miterlimit:4;" d="M 0.0100446 0.983817 L 26.000558 0.983817 M 1.014509 9.982143 L 1.014509 5.001674 L 9.008371 5.001674 L 9.008371 9.019531 L 17.002232 9.019531 L 17.002232 5.001674 L 11.979911 5.001674 M 3.986049 9.019531 L 5.994978 9.019531 M 26.000558 9.019531 L 21.020089 9.019531 L 21.020089 5.001674 L 29.013951 5.001674 M 29.013951 -0.0206473 L 29.013951 9.019531 L 37.007812 9.019531 L 37.007812 -0.0206473 M 32.989955 -0.0206473 L 32.989955 9.019531 " transform="matrix(0.0933333,0,0,0.0933333,22.96,6.693333)"/>
<path style="fill:none;stroke-width:2;stroke-linecap:butt;stroke-linejoin:miter;stroke:rgb(100%,100%,100%);stroke-opacity:1;stroke-miterlimit:4;" d="M 0.00502232 7 L 9.003348 7 M 10.007812 7 L 19.006138 7 " transform="matrix(0.186667,0,0,0.186667,22.96,6.693333)"/>
<path style="fill:none;stroke-width:2;stroke-linecap:butt;stroke-linejoin:miter;stroke:rgb(100%,100%,100%);stroke-opacity:1;stroke-miterlimit:4;" d="M 0.00502232 7 L 9.003348 7 M 10.007812 7 L 19.006138 7 " transform="matrix(0.186667,0,0,0.186667,22.96,14.693333)"/>
<path style="fill:none;stroke-width:2;stroke-linecap:butt;stroke-linejoin:miter;stroke:rgb(100%,100%,100%);stroke-opacity:1;stroke-miterlimit:4;" d="M 0.0100446 0.980469 L 26.000558 0.980469 M 1.014509 10.020647 L 1.014509 4.998326 L 9.008371 4.998326 L 9.008371 9.016183 L 17.002232 9.016183 L 17.002232 4.998326 L 11.979911 4.998326 M 3.986049 9.016183 L 5.994978 9.016183 M 26.000558 9.016183 L 21.020089 9.016183 L 21.020089 4.998326 L 29.013951 4.998326 M 29.013951 0.0178571 L 29.013951 9.016183 L 37.007812 9.016183 L 37.007812 0.0178571 M 32.989955 0.0178571 L 32.989955 9.016183 " transform="matrix(0.0933333,0,0,0.0933333,22.96,16.373333)"/>
<path style="fill:none;stroke-width:2;stroke-linecap:butt;stroke-linejoin:miter;stroke:rgb(100%,100%,100%);stroke-opacity:1;stroke-miterlimit:4;" d="M -0.0206473 0.983817 L 26.011719 0.983817 M 0.983817 9.982143 L 0.983817 5.001674 L 9.019531 5.001674 L 9.019531 9.019531 L 17.013393 9.019531 L 17.013393 5.001674 L 11.991071 5.001674 M 3.99721 9.019531 L 6.006138 9.019531 M 26.011719 9.019531 L 20.989397 9.019531 L 20.989397 5.001674 L 28.983259 5.001674 M 28.983259 -0.0206473 L 28.983259 9.019531 L 37.018973 9.019531 L 37.018973 -0.0206473 M 33.001116 -0.0206473 L 33.001116 9.019531 " transform="matrix(0.0933333,0,0,0.0933333,26.693333,6.693333)"/>
<path style="fill:none;stroke-width:2;stroke-linecap:butt;stroke-linejoin:miter;stroke:rgb(100%,100%,100%);stroke-opacity:1;stroke-miterlimit:4;" d="M -0.0103237 7 L 9.008929 7 M 9.992467 7 L 18.990792 7 " transform="matrix(0.186667,0,0,0.186667,26.693333,6.693333)"/>
<path style="fill:none;stroke-width:2;stroke-linecap:butt;stroke-linejoin:miter;stroke:rgb(100%,100%,100%);stroke-opacity:1;stroke-miterlimit:4;" d="M -0.0103237 7 L 9.008929 7 M 9.992467 7 L 18.990792 7 " transform="matrix(0.186667,0,0,0.186667,26.693333,14.693333)"/>
<path style="fill:none;stroke-width:2;stroke-linecap:butt;stroke-linejoin:miter;stroke:rgb(100%,100%,100%);stroke-opacity:1;stroke-miterlimit:4;" d="M -0.0206473 0.980469 L 26.011719 0.980469 M 0.983817 10.020647 L 0.983817 4.998326 L 9.019531 4.998326 L 9.019531 9.016183 L 17.013393 9.016183 L 17.013393 4.998326 L 11.991071 4.998326 M 3.99721 9.016183 L 6.006138 9.016183 M 26.011719 9.016183 L 20.989397 9.016183 L 20.989397 4.998326 L 28.983259 4.998326 M 28.983259 0.0178571 L 28.983259 9.016183 L 37.018973 9.016183 L 37.018973 0.0178571 M 33.001116 0.0178571 L 33.001116 9.016183 " transform="matrix(0.0933333,0,0,0.0933333,26.693333,16.373333)"/>
<path style="fill:none;stroke-width:2;stroke-linecap:butt;stroke-linejoin:miter;stroke:rgb(100%,100%,100%);stroke-opacity:1;stroke-miterlimit:4;" d="M -0.00948661 0.983817 L 25.981027 0.983817 M 0.994978 9.982143 L 0.994978 5.001674 L 8.988839 5.001674 L 8.988839 9.019531 L 16.982701 9.019531 L 16.982701 5.001674 L 12.002232 5.001674 M 4.008371 9.019531 L 6.017299 9.019531 M 25.981027 9.019531 L 21.000558 9.019531 L 21.000558 5.001674 L 28.99442 5.001674 M 28.99442 -0.0206473 L 28.99442 9.019531 L 36.988281 9.019531 L 36.988281 -0.0206473 M 33.012277 -0.0206473 L 33.012277 9.019531 " transform="matrix(0.0933333,0,0,0.0933333,30.426667,6.693333)"/>
<path style="fill:none;stroke-width:2;stroke-linecap:butt;stroke-linejoin:miter;stroke:rgb(100%,100%,100%);stroke-opacity:1;stroke-miterlimit:4;" d="M -0.0047433 7 L 8.993583 7 M 9.998047 7 L 18.996373 7 " transform="matrix(0.186667,0,0,0.186667,30.426667,6.693333)"/>
<path style="fill:none;stroke-width:2;stroke-linecap:butt;stroke-linejoin:miter;stroke:rgb(100%,100%,100%);stroke-opacity:1;stroke-miterlimit:4;" d="M -0.0047433 7 L 8.993583 7 M 9.998047 7 L 18.996373 7 " transform="matrix(0.186667,0,0,0.186667,30.426667,14.693333)"/>
<path style="fill:none;stroke-width:2;stroke-linecap:butt;stroke-linejoin:miter;stroke:rgb(100%,100%,100%);stroke-opacity:1;stroke-miterlimit:4;" d="M -0.00948661 0.980469 L 25.981027 0.980469 M 0.994978 10.020647 L 0.994978 4.998326 L 8.988839 4.998326 L 8.988839 9.016183 L 16.982701 9.016183 L 16.982701 4.998326 L 12.002232 4.998326 M 4.008371 9.016183 L 6.017299 9.016183 M 25.981027 9.016183 L 21.000558 9.016183 L 21.000558 4.998326 L 28.99442 4.998326 M 28.99442 0.0178571 L 28.99442 9.016183 L 36.988281 9.016183 L 36.988281 0.0178571 M 33.012277 0.0178571 L 33.012277 9.016183 " transform="matrix(0.0933333,0,0,0.0933333,30.426667,16.373333)"/>
<path style="fill:none;stroke-width:2;stroke-linecap:butt;stroke-linejoin:miter;stroke:rgb(100%,100%,100%);stroke-opacity:1;stroke-miterlimit:4;" d="M 0.00167411 0.983817 L 25.992188 0.983817 M 1.006138 9.982143 L 1.006138 5.001674 L 9 5.001674 L 9 9.019531 L 16.993862 9.019531 L 16.993862 5.001674 L 12.013393 5.001674 M 4.019531 9.019531 L 5.986607 9.019531 M 25.992188 9.019531 L 21.011719 9.019531 L 21.011719 5.001674 L 29.00558 5.001674 M 29.00558 -0.0206473 L 29.00558 9.019531 L 36.999442 9.019531 L 36.999442 -0.0206473 M 32.981585 -0.0206473 L 32.981585 9.019531 " transform="matrix(0.0933333,0,0,0.0933333,34.16,6.693333)"/>
<path style="fill:none;stroke-width:2;stroke-linecap:butt;stroke-linejoin:miter;stroke:rgb(100%,100%,100%);stroke-opacity:1;stroke-miterlimit:4;" d="M 0.000837054 7 L 8.999163 7 M 10.003627 7 L 19.001953 7 " transform="matrix(0.186667,0,0,0.186667,34.16,6.693333)"/>
<path style="fill:none;stroke-width:2;stroke-linecap:butt;stroke-linejoin:miter;stroke:rgb(100%,100%,100%);stroke-opacity:1;stroke-miterlimit:4;" d="M 0.000837054 7 L 8.999163 7 M 10.003627 7 L 19.001953 7 " transform="matrix(0.186667,0,0,0.186667,34.16,14.693333)"/>
<path style="fill:none;stroke-width:2;stroke-linecap:butt;stroke-linejoin:miter;stroke:rgb(100%,100%,100%);stroke-opacity:1;stroke-miterlimit:4;" d="M 0.00167411 0.980469 L 25.992188 0.980469 M 1.006138 10.020647 L 1.006138 4.998326 L 9 4.998326 L 9 9.016183 L 16.993862 9.016183 L 16.993862 4.998326 L 12.013393 4.998326 M 4.019531 9.016183 L 5.986607 9.016183 M 25.992188 9.016183 L 21.011719 9.016183 L 21.011719 4.998326 L 29.00558 4.998326 M 29.00558 0.0178571 L 29.00558 9.016183 L 36.999442 9.016183 L 36.999442 0.0178571 M 32.981585 0.0178571 L 32.981585 9.016183 " transform="matrix(0.0933333,0,0,0.0933333,34.16,16.373333)"/>
<path style="fill:none;stroke-width:2;stroke-linecap:butt;stroke-linejoin:miter;stroke:rgb(100%,100%,100%);stroke-opacity:1;stroke-miterlimit:4;" d="M 0.0128348 0.983817 L 26.003348 0.983817 M 1.017299 9.982143 L 1.017299 5.001674 L 9.011161 5.001674 L 9.011161 9.019531 L 17.005022 9.019531 L 17.005022 5.001674 L 11.982701 5.001674 M 3.988839 9.019531 L 5.997768 9.019531 M 26.003348 9.019531 L 20.981027 9.019531 L 20.981027 5.001674 L 29.016741 5.001674 M 29.016741 -0.0206473 L 29.016741 9.019531 L 37.010603 9.019531 L 37.010603 -0.0206473 M 32.992746 -0.0206473 L 32.992746 9.019531 " transform="matrix(0.0933333,0,0,0.0933333,37.893333,6.693333)"/>
<path style="fill:none;stroke-width:2;stroke-linecap:butt;stroke-linejoin:miter;stroke:rgb(100%,100%,100%);stroke-opacity:1;stroke-miterlimit:4;" d="M 0.00641741 7 L 9.004743 7 M 10.009208 7 L 19.007533 7 " transform="matrix(0.186667,0,0,0.186667,37.893333,6.693333)"/>
<path style="fill:none;stroke-width:2;stroke-linecap:butt;stroke-linejoin:miter;stroke:rgb(100%,100%,100%);stroke-opacity:1;stroke-miterlimit:4;" d="M 0.00641741 7 L 9.004743 7 M 10.009208 7 L 19.007533 7 " transform="matrix(0.186667,0,0,0.186667,37.893333,14.693333)"/>
<path style="fill:none;stroke-width:2;stroke-linecap:butt;stroke-linejoin:miter;stroke:rgb(100%,100%,100%);stroke-opacity:1;stroke-miterlimit:4;" d="M 0.0128348 0.980469 L 26.003348 0.980469 M 1.017299 10.020647 L 1.017299 4.998326 L 9.011161 4.998326 L 9.011161 9.016183 L 17.005022 9.016183 L 17.005022 4.998326 L 11.982701 4.998326 M 3.988839 9.016183 L 5.997768 9.016183 M 26.003348 9.016183 L 20.981027 9.016183 L 20.981027 4.998326 L 29.016741 4.998326 M 29.016741 0.0178571 L 29.016741 9.016183 L 37.010603 9.016183 L 37.010603 0.0178571 M 32.992746 0.0178571 L 32.992746 9.016183 " transform="matrix(0.0933333,0,0,0.0933333,37.893333,16.373333)"/>
<path style=" stroke:none;fill-rule:nonzero;fill:rgb(85.490196%,0%,0%);fill-opacity:1;" d="M 19.355469 14.507812 C 20.59375 14.910156 21.945312 14.382812 22.585938 13.25 C 23.226562 12.113281 22.972656 10.683594 21.984375 9.832031 C 22.621094 10.773438 22.671875 11.992188 22.113281 12.984375 C 21.558594 13.972656 20.488281 14.5625 19.355469 14.507812 "/>
<path style=" stroke:none;fill-rule:nonzero;fill:rgb(85.490196%,0%,0%);fill-opacity:1;" d="M 22.855469 13.984375 C 23.664062 13.515625 24.109375 12.605469 23.976562 11.683594 C 23.847656 10.757812 23.171875 10.003906 22.265625 9.777344 C 22.902344 10.253906 23.324219 10.96875 23.433594 11.757812 C 23.542969 12.546875 23.335938 13.347656 22.855469 13.984375 "/>
<path style=" stroke:none;fill-rule:nonzero;fill:rgb(85.490196%,0%,0%);fill-opacity:1;" d="M 21 15 L 20.851562 12 L 21 9.636719 C 21.089844 9.765625 21.214844 9.867188 21.355469 9.933594 L 21.355469 11.699219 L 21.234375 14.679688 Z M 21 15 "/>
<path style=" stroke:none;fill-rule:nonzero;fill:rgb(85.490196%,0%,0%);fill-opacity:1;" d="M 20.941406 9.449219 L 21 9.507812 C 21.125 9.6875 21.367188 9.742188 21.558594 9.636719 C 21.753906 9.535156 21.835938 9.300781 21.757812 9.097656 C 21.722656 9.265625 21.589844 9.394531 21.421875 9.425781 C 21.253906 9.453125 21.085938 9.375 21 9.226562 "/>
<path style=" stroke:none;fill-rule:nonzero;fill:rgb(85.490196%,0%,0%);fill-opacity:1;" d="M 22.644531 14.507812 C 21.40625 14.910156 20.054688 14.382812 19.414062 13.25 C 18.773438 12.113281 19.027344 10.683594 20.015625 9.832031 C 19.378906 10.773438 19.328125 11.992188 19.886719 12.984375 C 20.441406 13.972656 21.511719 14.5625 22.644531 14.507812 "/>
<path style=" stroke:none;fill-rule:nonzero;fill:rgb(85.490196%,0%,0%);fill-opacity:1;" d="M 19.144531 13.984375 C 18.335938 13.515625 17.890625 12.605469 18.023438 11.683594 C 18.152344 10.757812 18.828125 10.003906 19.734375 9.777344 C 19.097656 10.253906 18.675781 10.96875 18.566406 11.757812 C 18.457031 12.546875 18.664062 13.347656 19.144531 13.984375 "/>
<path style=" stroke:none;fill-rule:nonzero;fill:rgb(85.490196%,0%,0%);fill-opacity:1;" d="M 21 15 L 21.148438 12 L 21 9.636719 C 20.910156 9.765625 20.785156 9.867188 20.644531 9.933594 L 20.644531 11.699219 L 20.765625 14.679688 Z M 21 15 "/>
<path style=" stroke:none;fill-rule:nonzero;fill:rgb(85.490196%,0%,0%);fill-opacity:1;" d="M 21.058594 9.449219 L 21 9.507812 C 20.875 9.6875 20.632812 9.742188 20.441406 9.636719 C 20.246094 9.535156 20.164062 9.300781 20.242188 9.097656 C 20.277344 9.265625 20.410156 9.394531 20.578125 9.425781 C 20.746094 9.453125 20.914062 9.375 21 9.226562 "/>
</g>
</svg>
